<?xml version="1.0" encoding="utf-8"?>
<svg xmlns="http://www.w3.org/2000/svg" width="48" height="48" viewBox="0 0 1792 1792" xmlns:bx="https://boxy-svg.com"><defs><bx:export><bx:file format="svg"/><bx:file format="svg" href="#object-0" path="Untitled 2.svg"/></bx:export><linearGradient id="gradient-1" bx:pinned="true"/><linearGradient gradientUnits="userSpaceOnUse" x1="896" y1="0" x2="896" y2="1792" id="gradient-0"><stop offset="0" style="stop-color: rgb(30.196% 30.196% 30.196%)"/><stop offset="1" style="stop-color: rgb(18.64% 18.64% 18.64%)"/></linearGradient></defs><rect x="200" y="200" width="1400" height="1400" style="stroke: rgb(0, 0, 0); fill: rgb(255, 255, 255);"/><path d="M 400 0 L 1400 0 C 1492.667 0 1627.833 32.833 1693.5 98.5 C 1759.167 164.167 1792 307.333 1792 400 L 1792 1400 C 1792 1492.667 1759.167 1627.833 1693.5 1693.5 C 1627.833 1759.167 1492.667 1792 1400 1792 L 400 1792 C 307.333 1792 164.167 1759.167 98.5 1693.5 C 32.833 1627.833 0 1492.667 0 1400 L 0 400 C 0 307.333 34.333 165.667 100 100 C 165.667 34.333 307.333 0 400 0 Z M 898 1221 C 829.333 1221 777.5 1207.667 742.5 1181 C 707.5 1154.333 690 1111 690 1051 L 690 967 C 690 946.333 682.667 928.667 668 914 C 653.333 899.333 635.667 892 615 892 L 466 892 C 445.333 892 427.667 899.333 413 914 C 398.333 928.667 391 946.333 391 967 L 391 1015 C 391 1053.667 396.5 1093.667 407.5 1135 C 418.5 1176.333 437 1218.667 463 1262 C 489 1305.333 520.667 1343.833 558 1377.5 C 595.333 1411.167 643.5 1438.833 702.5 1460.5 C 761.5 1482.167 826.667 1493 898 1493 C 969.333 1493 1034.5 1482.167 1093.5 1460.5 C 1152.5 1438.833 1200.667 1411.167 1238 1377.5 C 1275.333 1343.833 1306.833 1305.333 1332.5 1262 C 1358.167 1218.667 1376.5 1176.333 1387.5 1135 C 1398.5 1093.667 1404 1053.667 1404 1015 L 1404 374 C 1404 353.333 1396.833 335.667 1382.5 321 C 1368.167 306.333 1350.667 299 1330 299 L 1181 299 C 1160.333 299 1142.667 306.333 1128 321 C 1113.333 335.667 1106 353.333 1106 374 L 1106 1051 C 1106 1111 1088.5 1154.333 1053.5 1181 C 1018.5 1207.667 966.667 1221 898 1221 Z" style="paint-order: fill; fill: url(&quot;#gradient-0&quot;);" id="object-0"/></svg>